<svg xmlns="http://www.w3.org/2000/svg" xmlns:xlink="http://www.w3.org/1999/xlink" width="1920" zoomAndPan="magnify" viewBox="0 0 1440 809.999993" height="1080" preserveAspectRatio="xMidYMid meet" version="1.0"><defs><clipPath id="b083e67acb"><path d="M 456.179688 161 L 963 161 L 963 667.5 L 456.179688 667.5 Z M 456.179688 161 " clip-rule="nonzero"/></clipPath></defs><path fill="#38b6ff" d="M 709.539062 334.730469 C 714.550781 334.730469 718.605469 330.675781 718.605469 325.660156 C 718.605469 320.648438 714.550781 316.589844 709.539062 316.589844 C 655.613281 316.589844 611.734375 360.464844 611.734375 414.394531 C 611.734375 468.328125 655.613281 512.199219 709.539062 512.199219 C 763.460938 512.199219 807.339844 468.328125 807.339844 414.394531 C 807.339844 409.382812 803.285156 405.324219 798.269531 405.324219 C 793.257812 405.324219 789.199219 409.382812 789.199219 414.394531 C 789.199219 458.320312 753.472656 494.058594 709.539062 494.058594 C 665.609375 494.058594 629.875 458.320312 629.875 414.394531 C 629.875 370.472656 665.609375 334.730469 709.539062 334.730469 " fill-opacity="1" fill-rule="nonzero"/><path fill="#38b6ff" d="M 709.539062 242.144531 C 614.570312 242.144531 537.296875 319.417969 537.296875 414.394531 C 537.296875 509.371094 614.570312 586.644531 709.539062 586.644531 C 804.503906 586.644531 881.777344 509.371094 881.777344 414.394531 C 881.777344 409.382812 877.71875 405.324219 872.710938 405.324219 C 867.695312 405.324219 863.636719 409.382812 863.636719 414.394531 C 863.636719 499.371094 794.515625 568.503906 709.539062 568.503906 C 624.558594 568.503906 555.4375 499.371094 555.4375 414.394531 C 555.4375 329.417969 624.558594 260.285156 709.539062 260.285156 C 714.550781 260.285156 718.605469 256.230469 718.605469 251.214844 C 718.605469 246.203125 714.550781 242.144531 709.539062 242.144531 " fill-opacity="1" fill-rule="nonzero"/><g clip-path="url(#b083e67acb)"><path fill="#38b6ff" d="M 953.523438 405.324219 C 948.507812 405.324219 944.453125 409.382812 944.453125 414.394531 C 944.453125 543.925781 839.070312 649.308594 709.539062 649.308594 C 580.011719 649.308594 474.617188 543.925781 474.617188 414.394531 C 474.617188 284.855469 580.011719 179.46875 709.539062 179.46875 C 714.550781 179.46875 718.605469 175.414062 718.605469 170.402344 C 718.605469 165.386719 714.550781 161.332031 709.539062 161.332031 C 570 161.332031 456.472656 274.859375 456.472656 414.394531 C 456.472656 553.933594 570 667.449219 709.539062 667.449219 C 849.078125 667.449219 962.589844 553.933594 962.589844 414.394531 C 962.589844 409.382812 958.535156 405.324219 953.523438 405.324219 " fill-opacity="1" fill-rule="nonzero"/></g><path fill="#38b6ff" d="M 899.933594 294.449219 L 854.558594 283.601562 L 911.058594 227.664062 L 955.988281 238.398438 Z M 831.507812 226.019531 L 887.554688 169.976562 L 898.257812 214.820312 L 842.113281 270.394531 Z M 982.59375 230.886719 C 981.6875 227.722656 979.160156 225.292969 975.96875 224.527344 L 915.789062 210.144531 L 901.425781 149.984375 C 900.660156 146.789062 898.238281 144.265625 895.066406 143.371094 C 891.910156 142.472656 888.511719 143.34375 886.1875 145.679688 L 815.082031 216.78125 C 812.851562 219.011719 811.945312 222.234375 812.671875 225.300781 L 827.023438 285.332031 L 703.160156 407.945312 C 699.601562 411.472656 699.566406 417.210938 703.089844 420.773438 C 704.859375 422.570312 707.203125 423.464844 709.539062 423.464844 C 711.839844 423.464844 714.144531 422.589844 715.914062 420.84375 L 839.378906 298.621094 L 900.644531 313.269531 C 901.335938 313.441406 902.042969 313.519531 902.75 313.519531 C 905.128906 313.519531 907.445312 312.582031 909.167969 310.859375 L 980.273438 239.761719 C 982.59375 237.441406 983.480469 234.042969 982.59375 230.886719 " fill-opacity="1" fill-rule="nonzero"/></svg>