<svg xmlns="http://www.w3.org/2000/svg" xmlns:xlink="http://www.w3.org/1999/xlink" width="1920" zoomAndPan="magnify" viewBox="0 0 1440 809.999993" height="1080" preserveAspectRatio="xMidYMid meet" version="1.0"><defs><clipPath id="d8277b763e"><path d="M 513 143 L 927 143 L 927 667.5 L 513 667.5 Z M 513 143 " clip-rule="nonzero"/></clipPath></defs><g clip-path="url(#d8277b763e)"><path fill="#38b6ff" d="M 738.632812 383.0625 C 738.632812 426.65625 738.605469 470.25 738.554688 513.839844 C 738.550781 516.949219 739.542969 518.804688 742.144531 520.277344 C 746.964844 523.011719 751.921875 525.53125 755.828125 529.671875 C 763.96875 538.304688 768.933594 548.402344 769.4375 560.28125 C 769.855469 570.128906 766.171875 578.757812 759.6875 586.109375 C 757.996094 588.03125 757.484375 589.882812 758.015625 592.332031 C 758.625 595.136719 758.289062 598.058594 758.851562 600.90625 C 759.902344 606.257812 761.933594 608.613281 767.132812 609.675781 C 777.429688 611.777344 787.8125 613.445312 798.128906 615.511719 C 803.863281 616.65625 810.003906 616.378906 815.882812 615.105469 C 817.90625 614.664062 818.632812 615.207031 818.570312 617.222656 C 818.53125 618.40625 818.785156 619.59375 818.8125 620.785156 C 818.964844 626.210938 818.351562 625.992188 824.378906 625.984375 C 827.359375 625.984375 830.339844 626.074219 833.316406 625.960938 C 835.632812 625.875 836.445312 626.808594 836.429688 629.117188 C 836.359375 638.847656 836.421875 648.578125 836.441406 658.308594 C 836.441406 659.601562 836.421875 660.894531 836.492188 662.183594 C 836.765625 667.378906 836.777344 667.386719 831.726562 667.386719 C 757.550781 667.386719 683.375 667.386719 609.199219 667.386719 C 604.378906 667.386719 604.351562 667.378906 604.386719 662.695312 C 604.46875 651.480469 604.613281 640.261719 604.65625 629.042969 C 604.667969 626.644531 605.550781 625.726562 608.015625 625.84375 C 611.777344 626.023438 615.570312 625.714844 619.328125 625.945312 C 622.15625 626.121094 623.003906 625.015625 622.902344 622.367188 C 622.820312 620.292969 623.1875 618.21875 623.308594 616.132812 C 623.371094 615.054688 623.722656 614.410156 624.949219 614.683594 C 635.84375 617.09375 646.546875 615.835938 657.308594 613.460938 C 665.425781 611.671875 673.714844 610.617188 681.945312 609.367188 C 685.484375 608.828125 687.316406 606.710938 688.316406 603.527344 C 689.679688 599.210938 689.398438 594.6875 690.015625 590.277344 C 690.203125 588.941406 689.347656 588.019531 688.445312 587.226562 C 676.546875 576.773438 674.898438 555.875 683.054688 540.925781 C 688.453125 531.03125 696.75 524.566406 706.632812 519.898438 C 710.226562 518.199219 711.792969 516.113281 711.65625 511.964844 C 711.347656 502.640625 711.566406 493.296875 711.617188 483.96875 C 711.949219 425.980469 712.332031 367.996094 711.957031 310.007812 C 711.832031 290.351562 711.726562 270.695312 711.648438 251.035156 C 711.640625 248.449219 710.820312 247.277344 708.242188 246.929688 C 696.550781 245.34375 684.847656 243.878906 673.058594 243.144531 C 656.320312 242.113281 639.578125 241.117188 622.8125 240.957031 C 613.496094 240.871094 604.171875 241.433594 594.851562 241.742188 C 585.226562 242.0625 575.679688 243.15625 566.15625 244.589844 C 550.144531 247.011719 536.191406 253.476562 524.5625 264.835938 C 523.15625 266.210938 521.503906 267.367188 519.84375 268.441406 C 517.824219 269.753906 515.839844 269.363281 514.15625 267.722656 C 512.5 266.109375 513.351562 264.449219 514.246094 262.84375 C 515.222656 261.097656 516.496094 259.578125 517.894531 258.15625 C 530.648438 245.238281 544.828125 234.09375 560.070312 224.28125 C 571.851562 216.699219 585.015625 213.730469 598.796875 213.132812 C 612.515625 212.539062 626.144531 214.28125 639.816406 214.910156 C 662.441406 215.953125 685.085938 215.167969 707.71875 215.449219 C 709.417969 215.472656 711.089844 215.179688 709.925781 213 C 708.363281 210.070312 709.621094 208.132812 711.570312 206.164062 C 712.933594 204.785156 714.875 203.742188 715 201.496094 C 715.222656 197.625 715.328125 193.742188 714.300781 189.960938 C 714.144531 189.390625 713.464844 188.816406 712.886719 188.527344 C 706.054688 185.125 704.132812 178.75 703.320312 172.019531 C 701.640625 158.046875 710.550781 145.96875 724.367188 143.777344 C 731.734375 142.613281 737.679688 146.339844 742.554688 151.476562 C 749.53125 158.8125 751.28125 171.640625 746.859375 180.75 C 745.394531 183.761719 743.445312 186.371094 740.242188 187.71875 C 738.144531 188.605469 737.792969 190.4375 737.527344 192.320312 C 737.28125 194.089844 737.195312 195.878906 736.949219 197.644531 C 736.421875 201.425781 736.871094 204.636719 740.6875 206.785156 C 743.222656 208.214844 744.214844 210.5625 742.386719 213.339844 C 741.269531 215.042969 741.828125 215.488281 743.675781 215.476562 C 751.515625 215.433594 759.363281 215.476562 767.207031 215.476562 C 781.902344 215.472656 796.597656 215.558594 811.292969 215.394531 C 818.429688 215.316406 825.558594 214.621094 832.695312 214.433594 C 853.167969 213.902344 872.292969 218.03125 889.113281 230.539062 C 897.585938 236.84375 905.265625 244.023438 913.078125 251.066406 C 916.695312 254.324219 920.375 257.5 924.207031 260.5 C 925.929688 261.847656 926.941406 263.457031 925.914062 265.648438 C 924.929688 267.757812 923.046875 268.273438 920.921875 268.035156 C 919.105469 267.847656 917.441406 267.238281 915.933594 266.207031 C 914.714844 265.363281 913.433594 264.550781 912.359375 263.535156 C 901.960938 253.699219 889.269531 248.964844 875.496094 246.042969 C 854.742188 241.644531 833.785156 240.691406 812.722656 241.511719 C 796.472656 242.140625 780.214844 242.875 764.011719 244.40625 C 756.410156 245.125 748.839844 246.09375 741.304688 247.355469 C 738.960938 247.746094 738.554688 249.039062 738.570312 251.097656 C 738.648438 261.226562 738.636719 271.351562 738.640625 281.480469 C 738.644531 315.339844 738.644531 349.203125 738.640625 383.0625 Z M 738.632812 383.0625 " fill-opacity="1" fill-rule="nonzero"/></g><path fill="#38b6ff" d="M 551.613281 530.328125 C 518.976562 529.761719 490.339844 519.351562 466.882812 496.117188 C 463.566406 492.8125 460.652344 489.179688 458.148438 485.222656 C 457.261719 483.832031 456.839844 482.691406 458.480469 481.40625 C 459.984375 480.226562 460.652344 478.371094 461.382812 476.617188 C 485.019531 419.808594 507.277344 362.441406 530.445312 305.441406 C 535.597656 292.761719 540.121094 279.808594 546.402344 267.601562 C 547.5 265.472656 548.902344 263.726562 551.566406 263.726562 C 554.265625 263.726562 555.96875 265.277344 557.171875 267.511719 C 557.640625 268.382812 558.074219 269.28125 558.453125 270.195312 C 561.546875 277.613281 564.679688 285.023438 567.699219 292.46875 C 592.09375 352.503906 615.644531 412.878906 639.609375 473.082031 C 640.78125 476.023438 641.765625 479.042969 644.125 481.382812 C 645.738281 482.976562 644.152344 484.371094 643.324219 485.566406 C 638.835938 492.050781 633.613281 497.871094 627.652344 503.03125 C 611.113281 517.386719 591.667969 525.199219 570.234375 528.5625 C 564.058594 529.535156 557.851562 530.171875 551.613281 530.328125 Z M 551.867188 276.152344 C 550.457031 277.332031 550.226562 278.542969 549.78125 279.613281 C 536.492188 311.59375 523.679688 343.769531 510.921875 375.96875 C 497.867188 408.902344 484.769531 441.816406 471.046875 474.476562 C 470.175781 476.542969 469.871094 477.628906 472.859375 477.625 C 525.179688 477.582031 577.5 477.601562 629.816406 477.683594 C 632.574219 477.683594 632.492188 476.710938 631.648438 474.722656 C 629.230469 469.066406 626.785156 463.417969 624.546875 457.691406 C 603.277344 403.246094 581.839844 348.875 559.695312 294.785156 C 557.1875 288.652344 554.566406 282.566406 551.867188 276.152344 Z M 551.867188 276.152344 " fill-opacity="1" fill-rule="nonzero"/><path fill="#38b6ff" d="M 886.101562 530.339844 C 860.714844 529.707031 836.703125 522.765625 815.800781 506.617188 C 808.105469 500.679688 801.566406 493.664062 796.183594 485.574219 C 795.0625 483.898438 794.898438 482.851562 796.679688 481.390625 C 798.933594 479.542969 799.941406 476.6875 801.074219 474.054688 C 817.253906 436.601562 832.945312 398.953125 848.613281 361.285156 C 859.972656 333.976562 871.1875 306.605469 883.199219 279.570312 C 884.125 277.488281 885.078125 275.390625 886.300781 273.476562 C 888.40625 270.179688 892.476562 270.222656 894.542969 273.578125 C 895.734375 275.507812 896.679688 277.617188 897.523438 279.730469 C 915.316406 324.351562 933.902344 368.652344 952.007812 413.148438 C 960.6875 434.476562 969.738281 455.652344 978.199219 477.066406 C 978.96875 479.019531 979.839844 480.933594 981.703125 482.117188 C 983.148438 483.039062 982.699219 483.9375 981.910156 485.058594 C 968.273438 504.503906 949.792969 517.140625 927.277344 524.230469 C 914.089844 528.386719 900.582031 530.089844 886.101562 530.339844 Z M 890.0625 284.050781 C 889.144531 286.125 888.609375 287.28125 888.109375 288.460938 C 864.335938 344.78125 840.566406 401.101562 816.800781 457.425781 C 814.292969 463.367188 811.824219 469.328125 809.285156 475.257812 C 808.59375 476.871094 808.769531 477.722656 810.75 477.585938 C 811.539062 477.53125 812.335938 477.585938 813.128906 477.585938 C 864.0625 477.621094 914.996094 477.660156 965.925781 477.695312 C 969.378906 477.695312 969.558594 477.429688 968.21875 474.164062 C 944.59375 416.601562 920.96875 359.039062 897.34375 301.476562 C 895.054688 295.898438 892.699219 290.355469 890.0625 284.050781 Z M 890.0625 284.050781 " fill-opacity="1" fill-rule="nonzero"/></svg>