<svg xmlns="http://www.w3.org/2000/svg" xmlns:xlink="http://www.w3.org/1999/xlink" width="1920" zoomAndPan="magnify" viewBox="0 0 1440 809.999993" height="1080" preserveAspectRatio="xMidYMid meet" version="1.0"><defs><clipPath id="1df0a9be65"><path d="M 506 142.5 L 930 142.5 L 930 667.5 L 506 667.5 Z M 506 142.5 " clip-rule="nonzero"/></clipPath></defs><path fill="#38b6ff" d="M 746.394531 408.878906 C 755.464844 408.878906 763.316406 405.5625 768.445312 399.074219 L 724.359375 399.074219 C 729.488281 405.554688 737.328125 408.878906 746.394531 408.878906 " fill-opacity="1" fill-rule="nonzero"/><path fill="#38b6ff" d="M 717.996094 379.667969 C 717.996094 380.699219 718.0625 381.722656 718.160156 382.730469 L 774.640625 382.730469 C 774.742188 381.722656 774.789062 380.699219 774.789062 379.667969 C 774.789062 379.5 774.789062 377.757812 774.789062 375.171875 L 717.996094 375.171875 C 717.996094 377.757812 717.996094 379.5 717.996094 379.667969 " fill-opacity="1" fill-rule="nonzero"/><path fill="#38b6ff" d="M 728.847656 387.019531 L 718.703125 387.019531 C 719.316406 389.839844 720.300781 391.691406 721.628906 394.128906 L 722.039062 394.785156 L 770.800781 394.785156 C 772.316406 392.164062 773.429688 390.089844 774.09375 387.019531 L 728.847656 387.019531 " fill-opacity="1" fill-rule="nonzero"/><path fill="#38b6ff" d="M 746.394531 250.34375 C 718.523438 250.34375 693.375 273.8125 695.117188 301.625 C 696.546875 324.503906 709.902344 337.273438 713.949219 348.191406 C 716.769531 355.828125 717.957031 363.839844 717.992188 368.835938 C 717.992188 368.933594 717.992188 369.742188 717.992188 370.882812 L 774.789062 370.882812 C 774.789062 369.742188 774.796875 368.933594 774.796875 368.839844 C 774.828125 363.839844 776.015625 355.828125 778.84375 348.191406 C 782.890625 337.273438 796.242188 324.503906 797.671875 301.625 C 799.414062 273.8125 774.261719 250.34375 746.394531 250.34375 " fill-opacity="1" fill-rule="nonzero"/><path fill="#38b6ff" d="M 754.003906 235.738281 C 754.003906 225.597656 754.003906 217.488281 754.003906 207.347656 C 754.003906 197.539062 738.789062 197.539062 738.789062 207.347656 C 738.789062 217.488281 738.789062 225.597656 738.789062 235.738281 C 738.789062 245.546875 754.003906 245.546875 754.003906 235.738281 " fill-opacity="1" fill-rule="nonzero"/><path fill="#38b6ff" d="M 680.105469 294.421875 C 669.964844 294.421875 661.859375 294.421875 651.71875 294.421875 C 641.910156 294.421875 641.910156 309.632812 651.71875 309.632812 C 661.859375 309.632812 669.964844 309.632812 680.105469 309.632812 C 689.914062 309.632812 689.914062 294.421875 680.105469 294.421875 " fill-opacity="1" fill-rule="nonzero"/><path fill="#38b6ff" d="M 841.070312 294.421875 C 830.929688 294.421875 822.828125 294.421875 812.683594 294.421875 C 802.875 294.421875 802.875 309.632812 812.683594 309.632812 C 822.828125 309.632812 830.929688 309.632812 841.070312 309.632812 C 850.882812 309.632812 850.882812 294.421875 841.070312 294.421875 " fill-opacity="1" fill-rule="nonzero"/><path fill="#38b6ff" d="M 694.144531 260.535156 C 701.074219 267.464844 711.835938 256.710938 704.898438 249.773438 C 697.730469 242.605469 691.996094 236.871094 684.824219 229.703125 C 677.890625 222.765625 667.132812 233.523438 674.066406 240.457031 C 681.238281 247.625 686.972656 253.359375 694.144531 260.535156 " fill-opacity="1" fill-rule="nonzero"/><path fill="#38b6ff" d="M 801.152344 343.523438 C 794.214844 336.585938 783.460938 347.34375 790.398438 354.28125 C 797.566406 361.449219 803.300781 367.183594 810.472656 374.351562 C 817.40625 381.289062 828.167969 370.535156 821.226562 363.601562 C 814.054688 356.425781 808.328125 350.695312 801.152344 343.523438 " fill-opacity="1" fill-rule="nonzero"/><path fill="#38b6ff" d="M 690.796875 343.523438 C 683.625 350.695312 677.894531 356.425781 670.722656 363.597656 C 663.785156 370.535156 674.546875 381.289062 681.480469 374.351562 C 688.648438 367.183594 694.382812 361.449219 701.550781 354.28125 C 708.488281 347.347656 697.734375 336.585938 690.796875 343.523438 " fill-opacity="1" fill-rule="nonzero"/><path fill="#38b6ff" d="M 798.644531 260.535156 C 805.8125 253.359375 811.546875 247.632812 818.722656 240.457031 C 825.65625 233.523438 814.902344 222.765625 807.964844 229.703125 C 800.792969 236.871094 795.058594 242.605469 787.890625 249.773438 C 780.953125 256.710938 791.707031 267.464844 798.644531 260.535156 " fill-opacity="1" fill-rule="nonzero"/><g clip-path="url(#1df0a9be65)"><path fill="#38b6ff" d="M 904.425781 367.414062 C 876.488281 476.433594 832.882812 454.289062 858.089844 583.746094 L 671.003906 642.679688 C 671.003906 642.679688 674.511719 560.464844 632.5625 549.335938 C 610.445312 543.472656 569.792969 554.53125 561.703125 528.894531 C 560.179688 524.082031 560.339844 517.824219 564.765625 504.707031 C 568.539062 493.527344 563.660156 482.480469 555.226562 476.09375 C 553.394531 474.699219 551.054688 473.453125 548.960938 470.101562 C 545.5625 464.65625 545.769531 457.054688 554.207031 453.609375 C 554.207031 453.609375 536.933594 447.472656 547.871094 434.1875 C 558.804688 420.898438 549.554688 413.753906 544.242188 411.699219 C 536.644531 408.773438 510.9375 405.90625 533.253906 381.039062 C 551.738281 360.4375 574.175781 335.222656 579.246094 325.851562 C 584.453125 316.222656 576.71875 306.492188 575.15625 297.742188 C 573.492188 288.4375 583.8125 261.832031 592.363281 246.128906 C 611.097656 211.71875 651.644531 154.484375 747.710938 160.960938 C 867.640625 169.042969 934.585938 249.726562 904.425781 367.414062 Z M 899.734375 216.335938 C 868.773438 173.539062 815.210938 147.511719 748.921875 143.046875 C 743.542969 142.683594 738.183594 142.5 732.984375 142.5 C 663.550781 142.5 610.9375 174.480469 576.589844 237.546875 C 576.363281 237.964844 553.722656 279.871094 557.480469 300.917969 C 558.265625 305.300781 559.746094 309.15625 561.054688 312.558594 C 561.71875 314.28125 562.664062 316.75 562.972656 318.132812 C 557.367188 327.28125 531.25 356.386719 519.886719 369.050781 C 515.621094 373.804688 502.628906 388.285156 507.40625 405.085938 C 511.179688 418.34375 523.066406 423.75 531.300781 426.472656 C 525 436.238281 525.960938 444.949219 527.238281 449.5625 C 527.894531 451.914062 528.824219 454.03125 529.9375 455.9375 C 527.796875 463.726562 529.15625 472.28125 533.726562 479.605469 C 537.347656 485.414062 541.546875 488.386719 543.808594 489.988281 L 544.382812 490.402344 C 545.214844 491.03125 549.292969 494.414062 547.757812 498.964844 C 542.492188 514.546875 541.574219 524.78125 544.578125 534.300781 C 553.992188 564.136719 586.0625 564.722656 607.28125 565.105469 C 615.039062 565.25 623.058594 565.394531 627.960938 566.691406 C 648.984375 572.269531 653.953125 619.796875 653.066406 641.9375 L 651.976562 667.5 L 878.777344 596.058594 L 875.714844 580.316406 C 860.984375 504.652344 870.332031 487.710938 887.308594 456.964844 C 897.875 437.820312 911.023438 413.996094 921.820312 371.875 C 937.292969 311.480469 929.65625 257.695312 899.734375 216.335938 " fill-opacity="1" fill-rule="nonzero"/></g></svg>