<svg xmlns="http://www.w3.org/2000/svg" xmlns:xlink="http://www.w3.org/1999/xlink" width="1920" zoomAndPan="magnify" viewBox="0 0 1440 809.999993" height="1080" preserveAspectRatio="xMidYMid meet" version="1.0"><defs><g/><clipPath id="f10e86017c"><path d="M 47.746094 125.617188 L 793 125.617188 L 793 648.324219 L 47.746094 648.324219 Z M 47.746094 125.617188 " clip-rule="nonzero"/></clipPath><clipPath id="18a6f6a83b"><path d="M 779.949219 382.503906 L 830.640625 382.503906 L 830.640625 433.199219 L 779.949219 433.199219 Z M 779.949219 382.503906 " clip-rule="nonzero"/></clipPath><clipPath id="155733c8d1"><path d="M 805.292969 382.503906 C 791.296875 382.503906 779.949219 393.855469 779.949219 407.851562 C 779.949219 421.851562 791.296875 433.199219 805.292969 433.199219 C 819.292969 433.199219 830.640625 421.851562 830.640625 407.851562 C 830.640625 393.855469 819.292969 382.503906 805.292969 382.503906 Z M 805.292969 382.503906 " clip-rule="nonzero"/></clipPath></defs><g clip-path="url(#f10e86017c)"><path fill="#046380" d="M 432.371094 648.675781 C 426.414062 648.675781 421.347656 644.65625 419.859375 638.996094 L 306.644531 188.527344 L 244.378906 410.929688 C 242.886719 416.441406 237.824219 420.316406 232.015625 420.316406 L 60.554688 420.316406 C 53.40625 420.316406 47.746094 414.503906 47.746094 407.503906 C 47.746094 400.503906 53.554688 394.691406 60.554688 394.691406 L 222.183594 394.691406 L 295.027344 135.046875 C 296.664062 129.386719 301.730469 125.664062 307.539062 125.664062 C 313.347656 125.8125 318.414062 129.683594 319.753906 135.34375 L 432.820312 585.070312 L 503.277344 326.914062 C 504.769531 321.402344 509.683594 317.527344 515.492188 317.378906 C 515.644531 317.378906 515.644531 317.378906 515.792969 317.378906 C 521.453125 317.378906 526.367188 320.957031 528.007812 326.316406 L 571.800781 464.855469 L 596.382812 402.585938 C 598.316406 397.671875 603.085938 394.394531 608.296875 394.394531 L 779.609375 394.394531 C 786.757812 394.394531 792.417969 400.203125 792.417969 407.207031 C 792.417969 414.207031 786.609375 420.015625 779.609375 420.015625 L 617.085938 420.015625 L 582.378906 507.90625 C 580.441406 512.96875 575.378906 516.246094 570.015625 515.949219 C 564.652344 515.800781 559.886719 512.226562 558.246094 507.011719 L 516.683594 375.921875 L 444.734375 639.292969 C 443.246094 644.804688 438.179688 648.675781 432.371094 648.675781 Z M 432.371094 648.675781 " fill-opacity="1" fill-rule="nonzero"/></g><g clip-path="url(#18a6f6a83b)"><g clip-path="url(#155733c8d1)"><path fill="#046380" d="M 779.949219 382.503906 L 830.640625 382.503906 L 830.640625 433.199219 L 779.949219 433.199219 Z M 779.949219 382.503906 " fill-opacity="1" fill-rule="nonzero"/></g></g><g fill="#000000" fill-opacity="1"><g transform="translate(918.423962, 393.387656)"><g><path d="M 13.046875 -22.1875 C 15.921875 -18.050781 18.914062 -14.84375 22.03125 -12.5625 C 25.15625 -10.289062 29.207031 -9.15625 34.1875 -9.15625 C 36.570312 -9.15625 38.847656 -9.539062 41.015625 -10.3125 C 43.191406 -11.082031 44.976562 -12.203125 46.375 -13.671875 C 47.78125 -15.148438 48.484375 -16.90625 48.484375 -18.9375 C 48.484375 -22.4375 46.992188 -25.164062 44.015625 -27.125 C 41.035156 -29.09375 36.847656 -30.601562 31.453125 -31.65625 C 24.578125 -33.0625 19.101562 -35.5 15.03125 -38.96875 C 10.96875 -42.4375 8.9375 -47.46875 8.9375 -54.0625 C 8.9375 -58.269531 10.109375 -61.914062 12.453125 -65 C 14.804688 -68.09375 17.910156 -70.476562 21.765625 -72.15625 C 25.628906 -73.84375 29.804688 -74.6875 34.296875 -74.6875 C 40.109375 -74.6875 45.117188 -73.5625 49.328125 -71.3125 C 53.535156 -69.070312 56.832031 -65.882812 59.21875 -61.75 L 51.21875 -53.859375 C 49.332031 -57.015625 46.953125 -59.570312 44.078125 -61.53125 C 41.203125 -63.5 37.832031 -64.484375 33.96875 -64.484375 C 30.113281 -64.484375 26.867188 -63.585938 24.234375 -61.796875 C 21.609375 -60.003906 20.296875 -57.53125 20.296875 -54.375 C 20.296875 -50.800781 21.679688 -48.191406 24.453125 -46.546875 C 27.222656 -44.898438 30.890625 -43.582031 35.453125 -42.59375 C 39.585938 -41.757812 43.507812 -40.460938 47.21875 -38.703125 C 50.9375 -36.953125 53.972656 -34.691406 56.328125 -31.921875 C 58.679688 -29.148438 59.859375 -25.800781 59.859375 -21.875 C 59.859375 -14.863281 57.472656 -9.289062 52.703125 -5.15625 C 47.929688 -1.019531 41.375 1.046875 33.03125 1.046875 C 27.351562 1.046875 22.179688 -0.0703125 17.515625 -2.3125 C 12.847656 -4.5625 8.765625 -8.207031 5.265625 -13.25 Z M 13.046875 -22.1875 "/></g></g></g><g fill="#000000" fill-opacity="1"><g transform="translate(991.425597, 393.387656)"><g><path d="M 59.015625 -55.21875 L 59.015625 0 L 48.078125 0 L 48.078125 -8.515625 C 46.390625 -6.203125 43.894531 -4.03125 40.59375 -2 C 37.300781 0.03125 33.484375 1.046875 29.140625 1.046875 C 24.503906 1.046875 20.273438 -0.175781 16.453125 -2.625 C 12.640625 -5.082031 9.609375 -8.484375 7.359375 -12.828125 C 5.117188 -17.179688 4 -22.160156 4 -27.765625 C 4 -33.378906 5.15625 -38.34375 7.46875 -42.65625 C 9.78125 -46.96875 12.96875 -50.332031 17.03125 -52.75 C 21.101562 -55.164062 25.734375 -56.375 30.921875 -56.375 C 34.773438 -56.375 38.15625 -55.53125 41.0625 -53.84375 C 43.976562 -52.164062 46.316406 -50.207031 48.078125 -47.96875 L 48.078125 -55.21875 Z M 31.65625 -8.9375 C 35.019531 -8.9375 37.960938 -9.757812 40.484375 -11.40625 C 43.015625 -13.0625 44.976562 -15.304688 46.375 -18.140625 C 47.78125 -20.984375 48.484375 -24.191406 48.484375 -27.765625 C 48.484375 -31.273438 47.78125 -34.429688 46.375 -37.234375 C 44.976562 -40.035156 43.015625 -42.257812 40.484375 -43.90625 C 37.960938 -45.5625 35.019531 -46.390625 31.65625 -46.390625 C 28.4375 -46.390625 25.5625 -45.582031 23.03125 -43.96875 C 20.507812 -42.351562 18.546875 -40.144531 17.140625 -37.34375 C 15.742188 -34.539062 15.046875 -31.347656 15.046875 -27.765625 C 15.046875 -24.191406 15.742188 -20.984375 17.140625 -18.140625 C 18.546875 -15.304688 20.507812 -13.0625 23.03125 -11.40625 C 25.5625 -9.757812 28.4375 -8.9375 31.65625 -8.9375 Z M 31.65625 -8.9375 "/></g></g></g><g fill="#000000" fill-opacity="1"><g transform="translate(1065.373926, 393.387656)"><g><path d="M 45.234375 -21.984375 L 45.234375 -55.21875 L 56.0625 -55.21875 L 56.0625 0 L 45.234375 0 L 45.234375 -8.828125 C 43.617188 -6.234375 41.25 -3.9375 38.125 -1.9375 C 35.007812 0.0507812 31.273438 1.046875 26.921875 1.046875 C 21.171875 1.046875 16.507812 -0.914062 12.9375 -4.84375 C 9.363281 -8.769531 7.578125 -14.203125 7.578125 -21.140625 L 7.578125 -55.21875 L 18.40625 -55.21875 L 18.40625 -24.09375 C 18.40625 -21.28125 18.84375 -18.679688 19.71875 -16.296875 C 20.59375 -13.921875 21.992188 -12.015625 23.921875 -10.578125 C 25.859375 -9.140625 28.332031 -8.421875 31.34375 -8.421875 C 35.132812 -8.421875 38.394531 -9.609375 41.125 -11.984375 C 43.863281 -14.367188 45.234375 -17.703125 45.234375 -21.984375 Z M 29.671875 -64.265625 L 26.09375 -69.640625 L 41.125 -82.78125 L 47.96875 -74.15625 Z M 29.671875 -64.265625 "/></g></g></g><g fill="#000000" fill-opacity="1"><g transform="translate(1136.376948, 393.387656)"><g><path d="M 59.328125 -77.84375 L 59.328125 0 L 48.484375 0 L 48.484375 -7.78125 C 46.878906 -5.601562 44.5 -3.585938 41.34375 -1.734375 C 38.1875 0.117188 34.609375 1.046875 30.609375 1.046875 C 25.628906 1.046875 21.140625 -0.175781 17.140625 -2.625 C 13.148438 -5.082031 9.992188 -8.484375 7.671875 -12.828125 C 5.359375 -17.179688 4.203125 -22.128906 4.203125 -27.671875 C 4.203125 -33.273438 5.359375 -38.234375 7.671875 -42.546875 C 9.992188 -46.859375 13.117188 -50.238281 17.046875 -52.6875 C 20.972656 -55.144531 25.390625 -56.375 30.296875 -56.375 C 34.222656 -56.375 37.78125 -55.566406 40.96875 -53.953125 C 44.15625 -52.347656 46.660156 -50.457031 48.484375 -48.28125 L 48.484375 -77.84375 Z M 32.078125 -8.3125 C 35.441406 -8.3125 38.382812 -9.148438 40.90625 -10.828125 C 43.4375 -12.515625 45.398438 -14.828125 46.796875 -17.765625 C 48.203125 -20.710938 48.90625 -24.015625 48.90625 -27.671875 C 48.90625 -31.378906 48.203125 -34.6875 46.796875 -37.59375 C 45.398438 -40.507812 43.4375 -42.804688 40.90625 -44.484375 C 38.382812 -46.171875 35.441406 -47.015625 32.078125 -47.015625 C 28.785156 -47.015625 25.875 -46.171875 23.34375 -44.484375 C 20.820312 -42.804688 18.84375 -40.507812 17.40625 -37.59375 C 15.96875 -34.6875 15.25 -31.378906 15.25 -27.671875 C 15.25 -24.015625 15.96875 -20.710938 17.40625 -17.765625 C 18.84375 -14.828125 20.820312 -12.515625 23.34375 -10.828125 C 25.875 -9.148438 28.785156 -8.3125 32.078125 -8.3125 Z M 32.078125 -8.3125 "/></g></g></g><g fill="#000000" fill-opacity="1"><g transform="translate(1210.430475, 393.387656)"><g><path d="M 55.015625 -7.265625 L 54.90625 -7.265625 C 52.664062 -5.085938 49.582031 -3.15625 45.65625 -1.46875 C 41.726562 0.207031 37.625 1.046875 33.34375 1.046875 C 27.59375 1.046875 22.523438 -0.160156 18.140625 -2.578125 C 13.765625 -4.992188 10.347656 -8.320312 7.890625 -12.5625 C 5.429688 -16.8125 4.203125 -21.632812 4.203125 -27.03125 C 4.203125 -33.207031 5.5 -38.484375 8.09375 -42.859375 C 10.6875 -47.242188 14.125 -50.609375 18.40625 -52.953125 C 22.6875 -55.304688 27.347656 -56.484375 32.390625 -56.484375 C 37.023438 -56.484375 41.234375 -55.34375 45.015625 -53.0625 C 48.804688 -50.789062 51.820312 -47.65625 54.0625 -43.65625 C 56.3125 -39.65625 57.4375 -34.988281 57.4375 -29.65625 L 57.328125 -25.03125 L 15.046875 -25.03125 C 15.671875 -20.050781 17.71875 -16.101562 21.1875 -13.1875 C 24.664062 -10.28125 29.066406 -8.828125 34.390625 -8.828125 C 38.253906 -8.828125 41.375 -9.546875 43.75 -10.984375 C 46.132812 -12.421875 48.101562 -13.804688 49.65625 -15.140625 Z M 32.390625 -46.5 C 28.253906 -46.5 24.644531 -45.53125 21.5625 -43.59375 C 18.476562 -41.664062 16.445312 -38.351562 15.46875 -33.65625 L 46.390625 -33.65625 L 46.390625 -34.390625 C 46.179688 -36.773438 45.390625 -38.878906 44.015625 -40.703125 C 42.648438 -42.523438 40.953125 -43.945312 38.921875 -44.96875 C 36.890625 -45.988281 34.710938 -46.5 32.390625 -46.5 Z M 32.390625 -46.5 "/></g></g></g><g fill="#000000" fill-opacity="1"><g transform="translate(852.314963, 497.929253)"><g/></g></g><g fill="#000000" fill-opacity="1"><g transform="translate(889.144918, 497.929253)"><g><path d="M 58.90625 0 L 51.96875 -18.296875 L 21.140625 -18.296875 L 14.203125 0 L 2.625 0 L 31.140625 -73.625 L 42.703125 -73.625 L 71 0 Z M 30.921875 -43.96875 L 25.34375 -29.234375 L 47.859375 -29.234375 L 42.078125 -44.390625 C 41.160156 -46.847656 40.242188 -49.492188 39.328125 -52.328125 C 38.421875 -55.171875 37.515625 -58.03125 36.609375 -60.90625 C 35.617188 -57.957031 34.648438 -55.007812 33.703125 -52.0625 C 32.765625 -49.125 31.835938 -46.425781 30.921875 -43.96875 Z M 30.921875 -43.96875 "/></g></g></g><g fill="#000000" fill-opacity="1"><g transform="translate(970.140865, 497.929253)"><g><path d="M 14.515625 -27.671875 C 14.515625 -24.015625 15.335938 -20.765625 16.984375 -17.921875 C 18.628906 -15.085938 20.800781 -12.847656 23.5 -11.203125 C 26.207031 -9.554688 29.101562 -8.734375 32.1875 -8.734375 C 35.695312 -8.734375 38.75 -9.644531 41.34375 -11.46875 C 43.9375 -13.289062 46.039062 -15.179688 47.65625 -17.140625 L 53.640625 -9.78125 C 52.304688 -7.882812 50.484375 -6.113281 48.171875 -4.46875 C 45.859375 -2.820312 43.226562 -1.488281 40.28125 -0.46875 C 37.34375 0.539062 34.257812 1.046875 31.03125 1.046875 C 25.976562 1.046875 21.414062 -0.210938 17.34375 -2.734375 C 13.28125 -5.253906 10.070312 -8.6875 7.71875 -13.03125 C 5.375 -17.382812 4.203125 -22.265625 4.203125 -27.671875 C 4.203125 -33.140625 5.375 -38.03125 7.71875 -42.34375 C 10.070312 -46.65625 13.28125 -50.070312 17.34375 -52.59375 C 21.414062 -55.113281 25.976562 -56.375 31.03125 -56.375 C 36.144531 -56.375 40.703125 -55.335938 44.703125 -53.265625 C 48.703125 -51.203125 51.679688 -48.523438 53.640625 -45.234375 L 47.65625 -37.875 C 46.039062 -40.25 43.742188 -42.296875 40.765625 -44.015625 C 37.785156 -45.734375 34.890625 -46.59375 32.078125 -46.59375 C 28.785156 -46.59375 25.804688 -45.769531 23.140625 -44.125 C 20.472656 -42.476562 18.367188 -40.234375 16.828125 -37.390625 C 15.285156 -34.554688 14.515625 -31.316406 14.515625 -27.671875 Z M 14.515625 -27.671875 "/></g></g></g><g fill="#000000" fill-opacity="1"><g transform="translate(1033.780702, 497.929253)"><g><path d="M 14.515625 -27.671875 C 14.515625 -24.015625 15.335938 -20.765625 16.984375 -17.921875 C 18.628906 -15.085938 20.800781 -12.847656 23.5 -11.203125 C 26.207031 -9.554688 29.101562 -8.734375 32.1875 -8.734375 C 35.695312 -8.734375 38.75 -9.644531 41.34375 -11.46875 C 43.9375 -13.289062 46.039062 -15.179688 47.65625 -17.140625 L 53.640625 -9.78125 C 52.304688 -7.882812 50.484375 -6.113281 48.171875 -4.46875 C 45.859375 -2.820312 43.226562 -1.488281 40.28125 -0.46875 C 37.34375 0.539062 34.257812 1.046875 31.03125 1.046875 C 25.976562 1.046875 21.414062 -0.210938 17.34375 -2.734375 C 13.28125 -5.253906 10.070312 -8.6875 7.71875 -13.03125 C 5.375 -17.382812 4.203125 -22.265625 4.203125 -27.671875 C 4.203125 -33.140625 5.375 -38.03125 7.71875 -42.34375 C 10.070312 -46.65625 13.28125 -50.070312 17.34375 -52.59375 C 21.414062 -55.113281 25.976562 -56.375 31.03125 -56.375 C 36.144531 -56.375 40.703125 -55.335938 44.703125 -53.265625 C 48.703125 -51.203125 51.679688 -48.523438 53.640625 -45.234375 L 47.65625 -37.875 C 46.039062 -40.25 43.742188 -42.296875 40.765625 -44.015625 C 37.785156 -45.734375 34.890625 -46.59375 32.078125 -46.59375 C 28.785156 -46.59375 25.804688 -45.769531 23.140625 -44.125 C 20.472656 -42.476562 18.367188 -40.234375 16.828125 -37.390625 C 15.285156 -34.554688 14.515625 -31.316406 14.515625 -27.671875 Z M 14.515625 -27.671875 "/></g></g></g><g fill="#000000" fill-opacity="1"><g transform="translate(1097.420531, 497.929253)"><g><path d="M 14.515625 -27.671875 C 14.515625 -24.015625 15.335938 -20.765625 16.984375 -17.921875 C 18.628906 -15.085938 20.800781 -12.847656 23.5 -11.203125 C 26.207031 -9.554688 29.101562 -8.734375 32.1875 -8.734375 C 35.695312 -8.734375 38.75 -9.644531 41.34375 -11.46875 C 43.9375 -13.289062 46.039062 -15.179688 47.65625 -17.140625 L 53.640625 -9.78125 C 52.304688 -7.882812 50.484375 -6.113281 48.171875 -4.46875 C 45.859375 -2.820312 43.226562 -1.488281 40.28125 -0.46875 C 37.34375 0.539062 34.257812 1.046875 31.03125 1.046875 C 25.976562 1.046875 21.414062 -0.210938 17.34375 -2.734375 C 13.28125 -5.253906 10.070312 -8.6875 7.71875 -13.03125 C 5.375 -17.382812 4.203125 -22.265625 4.203125 -27.671875 C 4.203125 -33.140625 5.375 -38.03125 7.71875 -42.34375 C 10.070312 -46.65625 13.28125 -50.070312 17.34375 -52.59375 C 21.414062 -55.113281 25.976562 -56.375 31.03125 -56.375 C 36.144531 -56.375 40.703125 -55.335938 44.703125 -53.265625 C 48.703125 -51.203125 51.679688 -48.523438 53.640625 -45.234375 L 47.65625 -37.875 C 46.039062 -40.25 43.742188 -42.296875 40.765625 -44.015625 C 37.785156 -45.734375 34.890625 -46.59375 32.078125 -46.59375 C 28.785156 -46.59375 25.804688 -45.769531 23.140625 -44.125 C 20.472656 -42.476562 18.367188 -40.234375 16.828125 -37.390625 C 15.285156 -34.554688 14.515625 -31.316406 14.515625 -27.671875 Z M 14.515625 -27.671875 "/></g></g></g><g fill="#000000" fill-opacity="1"><g transform="translate(1161.060374, 497.929253)"><g><path d="M 55.015625 -7.265625 L 54.90625 -7.265625 C 52.664062 -5.085938 49.582031 -3.15625 45.65625 -1.46875 C 41.726562 0.207031 37.625 1.046875 33.34375 1.046875 C 27.59375 1.046875 22.523438 -0.160156 18.140625 -2.578125 C 13.765625 -4.992188 10.347656 -8.320312 7.890625 -12.5625 C 5.429688 -16.8125 4.203125 -21.632812 4.203125 -27.03125 C 4.203125 -33.207031 5.5 -38.484375 8.09375 -42.859375 C 10.6875 -47.242188 14.125 -50.609375 18.40625 -52.953125 C 22.6875 -55.304688 27.347656 -56.484375 32.390625 -56.484375 C 37.023438 -56.484375 41.234375 -55.34375 45.015625 -53.0625 C 48.804688 -50.789062 51.820312 -47.65625 54.0625 -43.65625 C 56.3125 -39.65625 57.4375 -34.988281 57.4375 -29.65625 L 57.328125 -25.03125 L 15.046875 -25.03125 C 15.671875 -20.050781 17.71875 -16.101562 21.1875 -13.1875 C 24.664062 -10.28125 29.066406 -8.828125 34.390625 -8.828125 C 38.253906 -8.828125 41.375 -9.546875 43.75 -10.984375 C 46.132812 -12.421875 48.101562 -13.804688 49.65625 -15.140625 Z M 32.390625 -46.5 C 28.253906 -46.5 24.644531 -45.53125 21.5625 -43.59375 C 18.476562 -41.664062 16.445312 -38.351562 15.46875 -33.65625 L 46.390625 -33.65625 L 46.390625 -34.390625 C 46.179688 -36.773438 45.390625 -38.878906 44.015625 -40.703125 C 42.648438 -42.523438 40.953125 -43.945312 38.921875 -44.96875 C 36.890625 -45.988281 34.710938 -46.5 32.390625 -46.5 Z M 32.390625 -46.5 "/></g></g></g><g fill="#000000" fill-opacity="1"><g transform="translate(1230.064833, 497.929253)"><g><path d="M 39.4375 -40.703125 C 37.476562 -42.671875 35.253906 -44.285156 32.765625 -45.546875 C 30.273438 -46.804688 27.976562 -47.4375 25.875 -47.4375 C 24.40625 -47.4375 22.953125 -47.257812 21.515625 -46.90625 C 20.078125 -46.5625 18.863281 -45.914062 17.875 -44.96875 C 16.894531 -44.019531 16.40625 -42.632812 16.40625 -40.8125 C 16.476562 -38.289062 17.617188 -36.503906 19.828125 -35.453125 C 22.035156 -34.398438 24.785156 -33.453125 28.078125 -32.609375 C 30.953125 -31.835938 33.757812 -30.875 36.5 -29.71875 C 39.238281 -28.5625 41.5 -26.878906 43.28125 -24.671875 C 45.070312 -22.460938 45.96875 -19.359375 45.96875 -15.359375 C 45.96875 -11.921875 45.003906 -8.972656 43.078125 -6.515625 C 41.148438 -4.066406 38.660156 -2.191406 35.609375 -0.890625 C 32.554688 0.398438 29.347656 1.046875 25.984375 1.046875 C 21.984375 1.046875 18.035156 0.328125 14.140625 -1.109375 C 10.253906 -2.546875 6.941406 -5.015625 4.203125 -8.515625 L 11.578125 -14.828125 C 13.460938 -12.660156 15.613281 -10.960938 18.03125 -9.734375 C 20.457031 -8.503906 23.421875 -7.890625 26.921875 -7.890625 C 28.253906 -7.890625 29.585938 -8.113281 30.921875 -8.5625 C 32.253906 -9.019531 33.394531 -9.757812 34.34375 -10.78125 C 35.289062 -11.800781 35.765625 -13.1875 35.765625 -14.9375 C 35.765625 -16.625 35.253906 -17.9375 34.234375 -18.875 C 33.222656 -19.820312 31.875 -20.59375 30.1875 -21.1875 C 28.507812 -21.789062 26.648438 -22.335938 24.609375 -22.828125 C 21.597656 -23.671875 18.632812 -24.703125 15.71875 -25.921875 C 12.8125 -27.148438 10.394531 -28.90625 8.46875 -31.1875 C 6.539062 -33.46875 5.578125 -36.570312 5.578125 -40.5 C 5.578125 -43.789062 6.503906 -46.609375 8.359375 -48.953125 C 10.222656 -51.304688 12.660156 -53.128906 15.671875 -54.421875 C 18.691406 -55.722656 21.914062 -56.375 25.34375 -56.375 C 28.644531 -56.375 32.222656 -55.671875 36.078125 -54.265625 C 39.929688 -52.867188 43.125 -50.628906 45.65625 -47.546875 Z M 39.4375 -40.703125 "/></g></g></g><g fill="#000000" fill-opacity="1"><g transform="translate(1287.814106, 497.929253)"><g><path d="M 39.4375 -40.703125 C 37.476562 -42.671875 35.253906 -44.285156 32.765625 -45.546875 C 30.273438 -46.804688 27.976562 -47.4375 25.875 -47.4375 C 24.40625 -47.4375 22.953125 -47.257812 21.515625 -46.90625 C 20.078125 -46.5625 18.863281 -45.914062 17.875 -44.96875 C 16.894531 -44.019531 16.40625 -42.632812 16.40625 -40.8125 C 16.476562 -38.289062 17.617188 -36.503906 19.828125 -35.453125 C 22.035156 -34.398438 24.785156 -33.453125 28.078125 -32.609375 C 30.953125 -31.835938 33.757812 -30.875 36.5 -29.71875 C 39.238281 -28.5625 41.5 -26.878906 43.28125 -24.671875 C 45.070312 -22.460938 45.96875 -19.359375 45.96875 -15.359375 C 45.96875 -11.921875 45.003906 -8.972656 43.078125 -6.515625 C 41.148438 -4.066406 38.660156 -2.191406 35.609375 -0.890625 C 32.554688 0.398438 29.347656 1.046875 25.984375 1.046875 C 21.984375 1.046875 18.035156 0.328125 14.140625 -1.109375 C 10.253906 -2.546875 6.941406 -5.015625 4.203125 -8.515625 L 11.578125 -14.828125 C 13.460938 -12.660156 15.613281 -10.960938 18.03125 -9.734375 C 20.457031 -8.503906 23.421875 -7.890625 26.921875 -7.890625 C 28.253906 -7.890625 29.585938 -8.113281 30.921875 -8.5625 C 32.253906 -9.019531 33.394531 -9.757812 34.34375 -10.78125 C 35.289062 -11.800781 35.765625 -13.1875 35.765625 -14.9375 C 35.765625 -16.625 35.253906 -17.9375 34.234375 -18.875 C 33.222656 -19.820312 31.875 -20.59375 30.1875 -21.1875 C 28.507812 -21.789062 26.648438 -22.335938 24.609375 -22.828125 C 21.597656 -23.671875 18.632812 -24.703125 15.71875 -25.921875 C 12.8125 -27.148438 10.394531 -28.90625 8.46875 -31.1875 C 6.539062 -33.46875 5.578125 -36.570312 5.578125 -40.5 C 5.578125 -43.789062 6.503906 -46.609375 8.359375 -48.953125 C 10.222656 -51.304688 12.660156 -53.128906 15.671875 -54.421875 C 18.691406 -55.722656 21.914062 -56.375 25.34375 -56.375 C 28.644531 -56.375 32.222656 -55.671875 36.078125 -54.265625 C 39.929688 -52.867188 43.125 -50.628906 45.65625 -47.546875 Z M 39.4375 -40.703125 "/></g></g></g></svg>